<mxfile host="app.diagrams.net" agent="Mozilla/5.0 (Windows NT 10.0; Win64; x64; rv:131.0) Gecko/20100101 Firefox/131.0" version="24.7.17">
  <diagram name="Página-1" id="_hXMQaRCnXV_ixEwmhzM">
    <mxGraphModel dx="2901" dy="1923" grid="1" gridSize="10" guides="1" tooltips="1" connect="1" arrows="1" fold="1" page="1" pageScale="1" pageWidth="827" pageHeight="1169" math="0" shadow="0">
      <root>
        <mxCell id="0" />
        <mxCell id="1" parent="0" />
        <mxCell id="JLeTLQ-mN-TxxH4vUjaQ-33" style="edgeStyle=orthogonalEdgeStyle;rounded=0;orthogonalLoop=1;jettySize=auto;html=1;exitX=0.5;exitY=1;exitDx=0;exitDy=0;endArrow=none;endFill=0;" edge="1" parent="1" source="JLeTLQ-mN-TxxH4vUjaQ-1" target="JLeTLQ-mN-TxxH4vUjaQ-32">
          <mxGeometry relative="1" as="geometry" />
        </mxCell>
        <mxCell id="JLeTLQ-mN-TxxH4vUjaQ-1" value="Usuário" style="whiteSpace=wrap;html=1;align=center;" vertex="1" parent="1">
          <mxGeometry x="10" y="270" width="100" height="40" as="geometry" />
        </mxCell>
        <mxCell id="JLeTLQ-mN-TxxH4vUjaQ-2" value="&lt;div&gt;nome&lt;/div&gt;" style="ellipse;whiteSpace=wrap;html=1;align=center;" vertex="1" parent="1">
          <mxGeometry x="-160" y="270" width="100" height="40" as="geometry" />
        </mxCell>
        <mxCell id="JLeTLQ-mN-TxxH4vUjaQ-7" value="" style="endArrow=none;html=1;rounded=0;exitX=0;exitY=0;exitDx=0;exitDy=0;entryX=0.5;entryY=1;entryDx=0;entryDy=0;" edge="1" parent="1" source="JLeTLQ-mN-TxxH4vUjaQ-1" target="JLeTLQ-mN-TxxH4vUjaQ-47">
          <mxGeometry relative="1" as="geometry">
            <mxPoint x="230" y="390" as="sourcePoint" />
            <mxPoint x="-110" y="230" as="targetPoint" />
          </mxGeometry>
        </mxCell>
        <mxCell id="JLeTLQ-mN-TxxH4vUjaQ-8" value="" style="endArrow=none;html=1;rounded=0;exitX=0;exitY=0.5;exitDx=0;exitDy=0;entryX=1;entryY=0.5;entryDx=0;entryDy=0;" edge="1" parent="1" source="JLeTLQ-mN-TxxH4vUjaQ-1" target="JLeTLQ-mN-TxxH4vUjaQ-2">
          <mxGeometry relative="1" as="geometry">
            <mxPoint x="240" y="400" as="sourcePoint" />
            <mxPoint x="400" y="400" as="targetPoint" />
          </mxGeometry>
        </mxCell>
        <mxCell id="JLeTLQ-mN-TxxH4vUjaQ-9" value="" style="endArrow=none;html=1;rounded=0;exitX=0.25;exitY=0;exitDx=0;exitDy=0;" edge="1" parent="1" source="JLeTLQ-mN-TxxH4vUjaQ-1" target="JLeTLQ-mN-TxxH4vUjaQ-31">
          <mxGeometry relative="1" as="geometry">
            <mxPoint x="250" y="410" as="sourcePoint" />
            <mxPoint x="-220" y="430" as="targetPoint" />
          </mxGeometry>
        </mxCell>
        <mxCell id="JLeTLQ-mN-TxxH4vUjaQ-10" value="" style="endArrow=none;html=1;rounded=0;exitX=0.75;exitY=0;exitDx=0;exitDy=0;entryX=0.5;entryY=1;entryDx=0;entryDy=0;" edge="1" parent="1" source="JLeTLQ-mN-TxxH4vUjaQ-1" target="JLeTLQ-mN-TxxH4vUjaQ-30">
          <mxGeometry relative="1" as="geometry">
            <mxPoint x="260" y="420" as="sourcePoint" />
            <mxPoint x="-30" y="350" as="targetPoint" />
          </mxGeometry>
        </mxCell>
        <mxCell id="JLeTLQ-mN-TxxH4vUjaQ-38" style="edgeStyle=orthogonalEdgeStyle;rounded=0;orthogonalLoop=1;jettySize=auto;html=1;endArrow=none;endFill=0;" edge="1" parent="1" source="JLeTLQ-mN-TxxH4vUjaQ-11" target="JLeTLQ-mN-TxxH4vUjaQ-37">
          <mxGeometry relative="1" as="geometry" />
        </mxCell>
        <mxCell id="JLeTLQ-mN-TxxH4vUjaQ-49" style="edgeStyle=orthogonalEdgeStyle;rounded=0;orthogonalLoop=1;jettySize=auto;html=1;exitX=1;exitY=0.5;exitDx=0;exitDy=0;entryX=0;entryY=0.5;entryDx=0;entryDy=0;endArrow=none;endFill=0;" edge="1" parent="1" source="JLeTLQ-mN-TxxH4vUjaQ-11" target="JLeTLQ-mN-TxxH4vUjaQ-12">
          <mxGeometry relative="1" as="geometry" />
        </mxCell>
        <mxCell id="JLeTLQ-mN-TxxH4vUjaQ-11" value="Médico" style="whiteSpace=wrap;html=1;align=center;" vertex="1" parent="1">
          <mxGeometry x="490" y="270" width="100" height="40" as="geometry" />
        </mxCell>
        <mxCell id="JLeTLQ-mN-TxxH4vUjaQ-12" value="&lt;div&gt;nome&lt;/div&gt;" style="ellipse;whiteSpace=wrap;html=1;align=center;" vertex="1" parent="1">
          <mxGeometry x="640" y="270" width="100" height="40" as="geometry" />
        </mxCell>
        <mxCell id="JLeTLQ-mN-TxxH4vUjaQ-14" value="disponível" style="ellipse;whiteSpace=wrap;html=1;align=center;" vertex="1" parent="1">
          <mxGeometry x="640" y="200" width="100" height="40" as="geometry" />
        </mxCell>
        <mxCell id="JLeTLQ-mN-TxxH4vUjaQ-15" value="CRO" style="ellipse;whiteSpace=wrap;html=1;align=center;" vertex="1" parent="1">
          <mxGeometry x="520" y="200" width="100" height="40" as="geometry" />
        </mxCell>
        <mxCell id="JLeTLQ-mN-TxxH4vUjaQ-16" value="" style="endArrow=none;html=1;rounded=0;exitX=0;exitY=0;exitDx=0;exitDy=0;entryX=0.57;entryY=1;entryDx=0;entryDy=0;entryPerimeter=0;" edge="1" parent="1" source="JLeTLQ-mN-TxxH4vUjaQ-11" target="JLeTLQ-mN-TxxH4vUjaQ-48">
          <mxGeometry relative="1" as="geometry">
            <mxPoint x="710" y="390" as="sourcePoint" />
            <mxPoint x="460" y="240" as="targetPoint" />
          </mxGeometry>
        </mxCell>
        <mxCell id="JLeTLQ-mN-TxxH4vUjaQ-18" value="" style="endArrow=none;html=1;rounded=0;entryX=0.5;entryY=1;entryDx=0;entryDy=0;" edge="1" parent="1" target="JLeTLQ-mN-TxxH4vUjaQ-15">
          <mxGeometry relative="1" as="geometry">
            <mxPoint x="530" y="270" as="sourcePoint" />
            <mxPoint x="890" y="410" as="targetPoint" />
          </mxGeometry>
        </mxCell>
        <mxCell id="JLeTLQ-mN-TxxH4vUjaQ-19" value="" style="endArrow=none;html=1;rounded=0;exitX=0.75;exitY=0;exitDx=0;exitDy=0;entryX=0.5;entryY=1;entryDx=0;entryDy=0;" edge="1" parent="1" source="JLeTLQ-mN-TxxH4vUjaQ-11" target="JLeTLQ-mN-TxxH4vUjaQ-14">
          <mxGeometry relative="1" as="geometry">
            <mxPoint x="740" y="420" as="sourcePoint" />
            <mxPoint x="900" y="420" as="targetPoint" />
          </mxGeometry>
        </mxCell>
        <mxCell id="JLeTLQ-mN-TxxH4vUjaQ-42" style="edgeStyle=orthogonalEdgeStyle;rounded=0;orthogonalLoop=1;jettySize=auto;html=1;exitX=0.5;exitY=0;exitDx=0;exitDy=0;endArrow=none;endFill=0;" edge="1" parent="1" source="JLeTLQ-mN-TxxH4vUjaQ-20" target="JLeTLQ-mN-TxxH4vUjaQ-32">
          <mxGeometry relative="1" as="geometry" />
        </mxCell>
        <mxCell id="JLeTLQ-mN-TxxH4vUjaQ-43" style="edgeStyle=orthogonalEdgeStyle;rounded=0;orthogonalLoop=1;jettySize=auto;html=1;exitX=0.5;exitY=0;exitDx=0;exitDy=0;entryX=0.5;entryY=1;entryDx=0;entryDy=0;endArrow=none;endFill=0;" edge="1" parent="1" source="JLeTLQ-mN-TxxH4vUjaQ-20" target="JLeTLQ-mN-TxxH4vUjaQ-37">
          <mxGeometry relative="1" as="geometry" />
        </mxCell>
        <mxCell id="JLeTLQ-mN-TxxH4vUjaQ-20" value="Consultas" style="whiteSpace=wrap;html=1;align=center;" vertex="1" parent="1">
          <mxGeometry x="240" y="550" width="100" height="40" as="geometry" />
        </mxCell>
        <mxCell id="JLeTLQ-mN-TxxH4vUjaQ-22" value="data_consulta" style="ellipse;whiteSpace=wrap;html=1;align=center;" vertex="1" parent="1">
          <mxGeometry x="170" y="620" width="100" height="40" as="geometry" />
        </mxCell>
        <mxCell id="JLeTLQ-mN-TxxH4vUjaQ-23" value="fk_key_usuario" style="ellipse;whiteSpace=wrap;html=1;align=center;" vertex="1" parent="1">
          <mxGeometry x="364" y="550" width="100" height="40" as="geometry" />
        </mxCell>
        <mxCell id="JLeTLQ-mN-TxxH4vUjaQ-24" value="fk_key_medico" style="ellipse;whiteSpace=wrap;html=1;align=center;" vertex="1" parent="1">
          <mxGeometry x="320" y="620" width="100" height="40" as="geometry" />
        </mxCell>
        <mxCell id="JLeTLQ-mN-TxxH4vUjaQ-26" value="" style="endArrow=none;html=1;rounded=0;exitX=0;exitY=1;exitDx=0;exitDy=0;entryX=0.5;entryY=0;entryDx=0;entryDy=0;" edge="1" parent="1" source="JLeTLQ-mN-TxxH4vUjaQ-20" target="JLeTLQ-mN-TxxH4vUjaQ-22">
          <mxGeometry relative="1" as="geometry">
            <mxPoint x="190" y="760" as="sourcePoint" />
            <mxPoint x="350" y="760" as="targetPoint" />
          </mxGeometry>
        </mxCell>
        <mxCell id="JLeTLQ-mN-TxxH4vUjaQ-27" value="" style="endArrow=none;html=1;rounded=0;exitX=0;exitY=0.5;exitDx=0;exitDy=0;entryX=1;entryY=0.5;entryDx=0;entryDy=0;" edge="1" parent="1" source="JLeTLQ-mN-TxxH4vUjaQ-20" target="JLeTLQ-mN-TxxH4vUjaQ-45">
          <mxGeometry relative="1" as="geometry">
            <mxPoint x="200" y="770" as="sourcePoint" />
            <mxPoint x="220" y="585" as="targetPoint" />
          </mxGeometry>
        </mxCell>
        <mxCell id="JLeTLQ-mN-TxxH4vUjaQ-28" value="" style="endArrow=none;html=1;rounded=0;exitX=0.43;exitY=0.05;exitDx=0;exitDy=0;entryX=1;entryY=1;entryDx=0;entryDy=0;exitPerimeter=0;" edge="1" parent="1" source="JLeTLQ-mN-TxxH4vUjaQ-24" target="JLeTLQ-mN-TxxH4vUjaQ-20">
          <mxGeometry relative="1" as="geometry">
            <mxPoint x="210" y="780" as="sourcePoint" />
            <mxPoint x="370" y="780" as="targetPoint" />
          </mxGeometry>
        </mxCell>
        <mxCell id="JLeTLQ-mN-TxxH4vUjaQ-29" value="" style="endArrow=none;html=1;rounded=0;exitX=0;exitY=0.5;exitDx=0;exitDy=0;entryX=1;entryY=0.5;entryDx=0;entryDy=0;" edge="1" parent="1" source="JLeTLQ-mN-TxxH4vUjaQ-23" target="JLeTLQ-mN-TxxH4vUjaQ-20">
          <mxGeometry relative="1" as="geometry">
            <mxPoint x="220" y="790" as="sourcePoint" />
            <mxPoint x="380" y="790" as="targetPoint" />
          </mxGeometry>
        </mxCell>
        <mxCell id="JLeTLQ-mN-TxxH4vUjaQ-30" value="senha" style="ellipse;whiteSpace=wrap;html=1;align=center;" vertex="1" parent="1">
          <mxGeometry x="80" y="200" width="100" height="40" as="geometry" />
        </mxCell>
        <mxCell id="JLeTLQ-mN-TxxH4vUjaQ-31" value="sexo" style="ellipse;whiteSpace=wrap;html=1;align=center;" vertex="1" parent="1">
          <mxGeometry x="-50" y="200" width="100" height="40" as="geometry" />
        </mxCell>
        <mxCell id="JLeTLQ-mN-TxxH4vUjaQ-32" value="Pertence" style="shape=rhombus;perimeter=rhombusPerimeter;whiteSpace=wrap;html=1;align=center;" vertex="1" parent="1">
          <mxGeometry y="370" width="120" height="60" as="geometry" />
        </mxCell>
        <mxCell id="JLeTLQ-mN-TxxH4vUjaQ-37" value="Pertence" style="shape=rhombus;perimeter=rhombusPerimeter;whiteSpace=wrap;html=1;align=center;" vertex="1" parent="1">
          <mxGeometry x="480" y="370" width="120" height="60" as="geometry" />
        </mxCell>
        <mxCell id="JLeTLQ-mN-TxxH4vUjaQ-45" value="&lt;div&gt;id&lt;/div&gt;" style="ellipse;whiteSpace=wrap;html=1;align=center;fontStyle=4;" vertex="1" parent="1">
          <mxGeometry x="120" y="550" width="100" height="40" as="geometry" />
        </mxCell>
        <mxCell id="JLeTLQ-mN-TxxH4vUjaQ-47" value="&lt;div&gt;id&lt;/div&gt;" style="ellipse;whiteSpace=wrap;html=1;align=center;fontStyle=4;" vertex="1" parent="1">
          <mxGeometry x="-160" y="200" width="100" height="40" as="geometry" />
        </mxCell>
        <mxCell id="JLeTLQ-mN-TxxH4vUjaQ-48" value="&lt;div&gt;id&lt;/div&gt;" style="ellipse;whiteSpace=wrap;html=1;align=center;fontStyle=4;" vertex="1" parent="1">
          <mxGeometry x="390" y="200" width="100" height="40" as="geometry" />
        </mxCell>
        <mxCell id="JLeTLQ-mN-TxxH4vUjaQ-54" style="edgeStyle=orthogonalEdgeStyle;rounded=0;orthogonalLoop=1;jettySize=auto;html=1;entryX=0.5;entryY=0;entryDx=0;entryDy=0;endArrow=none;endFill=0;" edge="1" parent="1" source="JLeTLQ-mN-TxxH4vUjaQ-50" target="JLeTLQ-mN-TxxH4vUjaQ-52">
          <mxGeometry relative="1" as="geometry" />
        </mxCell>
        <mxCell id="JLeTLQ-mN-TxxH4vUjaQ-50" value="Consultório" style="whiteSpace=wrap;html=1;align=center;" vertex="1" parent="1">
          <mxGeometry x="240" y="-220" width="100" height="40" as="geometry" />
        </mxCell>
        <mxCell id="JLeTLQ-mN-TxxH4vUjaQ-56" style="edgeStyle=orthogonalEdgeStyle;rounded=0;orthogonalLoop=1;jettySize=auto;html=1;entryX=0.5;entryY=0;entryDx=0;entryDy=0;endArrow=none;endFill=0;" edge="1" parent="1" source="JLeTLQ-mN-TxxH4vUjaQ-52" target="JLeTLQ-mN-TxxH4vUjaQ-53">
          <mxGeometry relative="1" as="geometry" />
        </mxCell>
        <mxCell id="JLeTLQ-mN-TxxH4vUjaQ-52" value="Possui" style="shape=rhombus;perimeter=rhombusPerimeter;whiteSpace=wrap;html=1;align=center;" vertex="1" parent="1">
          <mxGeometry x="230" y="-120" width="120" height="60" as="geometry" />
        </mxCell>
        <mxCell id="JLeTLQ-mN-TxxH4vUjaQ-58" style="edgeStyle=orthogonalEdgeStyle;rounded=0;orthogonalLoop=1;jettySize=auto;html=1;exitX=0.5;exitY=1;exitDx=0;exitDy=0;endArrow=none;endFill=0;" edge="1" parent="1" source="JLeTLQ-mN-TxxH4vUjaQ-53" target="JLeTLQ-mN-TxxH4vUjaQ-57">
          <mxGeometry relative="1" as="geometry" />
        </mxCell>
        <mxCell id="JLeTLQ-mN-TxxH4vUjaQ-53" value="&lt;div&gt;Pessoa&lt;/div&gt;" style="whiteSpace=wrap;html=1;align=center;" vertex="1" parent="1">
          <mxGeometry x="240" y="20" width="100" height="40" as="geometry" />
        </mxCell>
        <mxCell id="JLeTLQ-mN-TxxH4vUjaQ-61" style="edgeStyle=orthogonalEdgeStyle;rounded=0;orthogonalLoop=1;jettySize=auto;html=1;exitX=0;exitY=0.5;exitDx=0;exitDy=0;entryX=1;entryY=0.5;entryDx=0;entryDy=0;endArrow=none;endFill=0;" edge="1" parent="1" source="JLeTLQ-mN-TxxH4vUjaQ-57" target="JLeTLQ-mN-TxxH4vUjaQ-1">
          <mxGeometry relative="1" as="geometry">
            <mxPoint x="290" y="310" as="targetPoint" />
            <Array as="points">
              <mxPoint x="260" y="160" />
              <mxPoint x="260" y="290" />
            </Array>
          </mxGeometry>
        </mxCell>
        <mxCell id="JLeTLQ-mN-TxxH4vUjaQ-62" style="edgeStyle=orthogonalEdgeStyle;rounded=0;orthogonalLoop=1;jettySize=auto;html=1;exitX=0;exitY=0.5;exitDx=0;exitDy=0;entryX=0;entryY=0.5;entryDx=0;entryDy=0;endArrow=none;endFill=0;" edge="1" parent="1" source="JLeTLQ-mN-TxxH4vUjaQ-57" target="JLeTLQ-mN-TxxH4vUjaQ-11">
          <mxGeometry relative="1" as="geometry">
            <Array as="points">
              <mxPoint x="320" y="160" />
              <mxPoint x="320" y="290" />
            </Array>
          </mxGeometry>
        </mxCell>
        <mxCell id="JLeTLQ-mN-TxxH4vUjaQ-57" value="" style="triangle;whiteSpace=wrap;html=1;direction=north;" vertex="1" parent="1">
          <mxGeometry x="250" y="100" width="80" height="60" as="geometry" />
        </mxCell>
        <mxCell id="JLeTLQ-mN-TxxH4vUjaQ-63" value="nome" style="ellipse;whiteSpace=wrap;html=1;align=center;" vertex="1" parent="1">
          <mxGeometry x="390" y="20" width="100" height="40" as="geometry" />
        </mxCell>
        <mxCell id="JLeTLQ-mN-TxxH4vUjaQ-64" value="&lt;div&gt;id&lt;/div&gt;" style="ellipse;whiteSpace=wrap;html=1;align=center;fontStyle=4;" vertex="1" parent="1">
          <mxGeometry x="390" y="-50" width="100" height="40" as="geometry" />
        </mxCell>
        <mxCell id="JLeTLQ-mN-TxxH4vUjaQ-65" value="CPF" style="ellipse;whiteSpace=wrap;html=1;align=center;" vertex="1" parent="1">
          <mxGeometry x="390" y="80" width="100" height="40" as="geometry" />
        </mxCell>
        <mxCell id="JLeTLQ-mN-TxxH4vUjaQ-66" value="data_nascimento" style="ellipse;whiteSpace=wrap;html=1;align=center;" vertex="1" parent="1">
          <mxGeometry x="110" y="-20" width="100" height="40" as="geometry" />
        </mxCell>
        <mxCell id="JLeTLQ-mN-TxxH4vUjaQ-67" value="" style="endArrow=none;html=1;rounded=0;exitX=1;exitY=0;exitDx=0;exitDy=0;entryX=0;entryY=1;entryDx=0;entryDy=0;" edge="1" parent="1" source="JLeTLQ-mN-TxxH4vUjaQ-53" target="JLeTLQ-mN-TxxH4vUjaQ-64">
          <mxGeometry relative="1" as="geometry">
            <mxPoint x="345" y="-10" as="sourcePoint" />
            <mxPoint x="390" y="-40" as="targetPoint" />
          </mxGeometry>
        </mxCell>
        <mxCell id="JLeTLQ-mN-TxxH4vUjaQ-68" value="" style="endArrow=none;html=1;rounded=0;entryX=0;entryY=0.5;entryDx=0;entryDy=0;exitX=1;exitY=0.5;exitDx=0;exitDy=0;" edge="1" parent="1" source="JLeTLQ-mN-TxxH4vUjaQ-53" target="JLeTLQ-mN-TxxH4vUjaQ-63">
          <mxGeometry relative="1" as="geometry">
            <mxPoint x="40" y="80" as="sourcePoint" />
            <mxPoint x="200" y="80" as="targetPoint" />
          </mxGeometry>
        </mxCell>
        <mxCell id="JLeTLQ-mN-TxxH4vUjaQ-69" value="" style="endArrow=none;html=1;rounded=0;exitX=1;exitY=0.5;exitDx=0;exitDy=0;entryX=0;entryY=0;entryDx=0;entryDy=0;" edge="1" parent="1" source="JLeTLQ-mN-TxxH4vUjaQ-66" target="JLeTLQ-mN-TxxH4vUjaQ-53">
          <mxGeometry relative="1" as="geometry">
            <mxPoint x="50" y="90" as="sourcePoint" />
            <mxPoint x="210" y="90" as="targetPoint" />
          </mxGeometry>
        </mxCell>
        <mxCell id="JLeTLQ-mN-TxxH4vUjaQ-70" value="" style="endArrow=none;html=1;rounded=0;entryX=0;entryY=0.5;entryDx=0;entryDy=0;exitX=1;exitY=1;exitDx=0;exitDy=0;" edge="1" parent="1" source="JLeTLQ-mN-TxxH4vUjaQ-53" target="JLeTLQ-mN-TxxH4vUjaQ-65">
          <mxGeometry relative="1" as="geometry">
            <mxPoint x="60" y="100" as="sourcePoint" />
            <mxPoint x="220" y="100" as="targetPoint" />
          </mxGeometry>
        </mxCell>
        <mxCell id="JLeTLQ-mN-TxxH4vUjaQ-72" value="telefone" style="ellipse;whiteSpace=wrap;html=1;align=center;dashed=1;" vertex="1" parent="1">
          <mxGeometry x="110" y="50" width="100" height="40" as="geometry" />
        </mxCell>
        <mxCell id="JLeTLQ-mN-TxxH4vUjaQ-73" value="" style="endArrow=none;html=1;rounded=0;exitX=1;exitY=0.5;exitDx=0;exitDy=0;entryX=0;entryY=0.5;entryDx=0;entryDy=0;" edge="1" parent="1" source="JLeTLQ-mN-TxxH4vUjaQ-72" target="JLeTLQ-mN-TxxH4vUjaQ-53">
          <mxGeometry relative="1" as="geometry">
            <mxPoint x="220" y="10" as="sourcePoint" />
            <mxPoint x="250" y="30" as="targetPoint" />
          </mxGeometry>
        </mxCell>
        <mxCell id="JLeTLQ-mN-TxxH4vUjaQ-74" value="CNPJ" style="ellipse;whiteSpace=wrap;html=1;align=center;fontStyle=4;" vertex="1" parent="1">
          <mxGeometry x="390" y="-220" width="100" height="40" as="geometry" />
        </mxCell>
        <mxCell id="JLeTLQ-mN-TxxH4vUjaQ-75" value="nome_fantasia" style="ellipse;whiteSpace=wrap;html=1;align=center;" vertex="1" parent="1">
          <mxGeometry x="390" y="-310" width="100" height="40" as="geometry" />
        </mxCell>
        <mxCell id="JLeTLQ-mN-TxxH4vUjaQ-76" value="razao_social" style="ellipse;whiteSpace=wrap;html=1;align=center;" vertex="1" parent="1">
          <mxGeometry x="240" y="-310" width="100" height="40" as="geometry" />
        </mxCell>
        <mxCell id="JLeTLQ-mN-TxxH4vUjaQ-77" value="endereço" style="ellipse;whiteSpace=wrap;html=1;align=center;" vertex="1" parent="1">
          <mxGeometry x="80" y="-310" width="100" height="40" as="geometry" />
        </mxCell>
        <mxCell id="JLeTLQ-mN-TxxH4vUjaQ-78" value="telefone" style="ellipse;whiteSpace=wrap;html=1;align=center;" vertex="1" parent="1">
          <mxGeometry x="80" y="-220" width="100" height="40" as="geometry" />
        </mxCell>
        <mxCell id="JLeTLQ-mN-TxxH4vUjaQ-79" value="" style="endArrow=none;html=1;rounded=0;exitX=1;exitY=0.5;exitDx=0;exitDy=0;entryX=0;entryY=0.5;entryDx=0;entryDy=0;" edge="1" parent="1" source="JLeTLQ-mN-TxxH4vUjaQ-78" target="JLeTLQ-mN-TxxH4vUjaQ-50">
          <mxGeometry relative="1" as="geometry">
            <mxPoint x="40" y="-190" as="sourcePoint" />
            <mxPoint x="200" y="-190" as="targetPoint" />
          </mxGeometry>
        </mxCell>
        <mxCell id="JLeTLQ-mN-TxxH4vUjaQ-80" value="" style="endArrow=none;html=1;rounded=0;exitX=1;exitY=1;exitDx=0;exitDy=0;entryX=0;entryY=0;entryDx=0;entryDy=0;" edge="1" parent="1" source="JLeTLQ-mN-TxxH4vUjaQ-77" target="JLeTLQ-mN-TxxH4vUjaQ-50">
          <mxGeometry relative="1" as="geometry">
            <mxPoint x="50" y="-180" as="sourcePoint" />
            <mxPoint x="210" y="-180" as="targetPoint" />
          </mxGeometry>
        </mxCell>
        <mxCell id="JLeTLQ-mN-TxxH4vUjaQ-81" value="" style="endArrow=none;html=1;rounded=0;exitX=0.5;exitY=1;exitDx=0;exitDy=0;" edge="1" parent="1" source="JLeTLQ-mN-TxxH4vUjaQ-76" target="JLeTLQ-mN-TxxH4vUjaQ-50">
          <mxGeometry relative="1" as="geometry">
            <mxPoint x="60" y="-170" as="sourcePoint" />
            <mxPoint x="220" y="-170" as="targetPoint" />
          </mxGeometry>
        </mxCell>
        <mxCell id="JLeTLQ-mN-TxxH4vUjaQ-82" value="" style="endArrow=none;html=1;rounded=0;exitX=0;exitY=1;exitDx=0;exitDy=0;entryX=1;entryY=0;entryDx=0;entryDy=0;" edge="1" parent="1" source="JLeTLQ-mN-TxxH4vUjaQ-75" target="JLeTLQ-mN-TxxH4vUjaQ-50">
          <mxGeometry relative="1" as="geometry">
            <mxPoint x="70" y="-160" as="sourcePoint" />
            <mxPoint x="230" y="-160" as="targetPoint" />
          </mxGeometry>
        </mxCell>
        <mxCell id="JLeTLQ-mN-TxxH4vUjaQ-83" value="" style="endArrow=none;html=1;rounded=0;exitX=0;exitY=0.5;exitDx=0;exitDy=0;entryX=1;entryY=0.5;entryDx=0;entryDy=0;" edge="1" parent="1" source="JLeTLQ-mN-TxxH4vUjaQ-74" target="JLeTLQ-mN-TxxH4vUjaQ-50">
          <mxGeometry relative="1" as="geometry">
            <mxPoint x="80" y="-150" as="sourcePoint" />
            <mxPoint x="240" y="-150" as="targetPoint" />
          </mxGeometry>
        </mxCell>
        <mxCell id="JLeTLQ-mN-TxxH4vUjaQ-84" value="(1, N)" style="text;html=1;align=center;verticalAlign=middle;resizable=0;points=[];autosize=1;strokeColor=none;fillColor=none;" vertex="1" parent="1">
          <mxGeometry x="284" y="-185" width="50" height="30" as="geometry" />
        </mxCell>
        <mxCell id="JLeTLQ-mN-TxxH4vUjaQ-86" value="(1, N)" style="text;html=1;align=center;verticalAlign=middle;resizable=0;points=[];autosize=1;strokeColor=none;fillColor=none;" vertex="1" parent="1">
          <mxGeometry x="284" y="-5" width="50" height="30" as="geometry" />
        </mxCell>
        <mxCell id="JLeTLQ-mN-TxxH4vUjaQ-87" value="(1, 1)" style="text;html=1;align=center;verticalAlign=middle;resizable=0;points=[];autosize=1;strokeColor=none;fillColor=none;" vertex="1" parent="1">
          <mxGeometry x="104" y="265" width="50" height="30" as="geometry" />
        </mxCell>
        <mxCell id="JLeTLQ-mN-TxxH4vUjaQ-88" value="(1, N)" style="text;html=1;align=center;verticalAlign=middle;resizable=0;points=[];autosize=1;strokeColor=none;fillColor=none;" vertex="1" parent="1">
          <mxGeometry x="245" y="55" width="50" height="30" as="geometry" />
        </mxCell>
        <mxCell id="JLeTLQ-mN-TxxH4vUjaQ-89" value="(1, 1)" style="text;html=1;align=center;verticalAlign=middle;resizable=0;points=[];autosize=1;strokeColor=none;fillColor=none;" vertex="1" parent="1">
          <mxGeometry x="446" y="265" width="50" height="30" as="geometry" />
        </mxCell>
        <mxCell id="JLeTLQ-mN-TxxH4vUjaQ-90" value="(1, N)" style="text;html=1;align=center;verticalAlign=middle;resizable=0;points=[];autosize=1;strokeColor=none;fillColor=none;" vertex="1" parent="1">
          <mxGeometry x="282" y="55" width="50" height="30" as="geometry" />
        </mxCell>
        <mxCell id="JLeTLQ-mN-TxxH4vUjaQ-91" value="(0, N)" style="text;html=1;align=center;verticalAlign=middle;resizable=0;points=[];autosize=1;strokeColor=none;fillColor=none;" vertex="1" parent="1">
          <mxGeometry x="240" y="525" width="50" height="30" as="geometry" />
        </mxCell>
        <mxCell id="JLeTLQ-mN-TxxH4vUjaQ-92" value="(0, N)" style="text;html=1;align=center;verticalAlign=middle;resizable=0;points=[];autosize=1;strokeColor=none;fillColor=none;" vertex="1" parent="1">
          <mxGeometry x="290" y="525" width="50" height="30" as="geometry" />
        </mxCell>
        <mxCell id="JLeTLQ-mN-TxxH4vUjaQ-94" value="(1, 1)" style="text;html=1;align=center;verticalAlign=middle;resizable=0;points=[];autosize=1;strokeColor=none;fillColor=none;" vertex="1" parent="1">
          <mxGeometry x="52" y="304" width="50" height="30" as="geometry" />
        </mxCell>
        <mxCell id="JLeTLQ-mN-TxxH4vUjaQ-95" value="(1, 1)" style="text;html=1;align=center;verticalAlign=middle;resizable=0;points=[];autosize=1;strokeColor=none;fillColor=none;" vertex="1" parent="1">
          <mxGeometry x="534" y="304" width="50" height="30" as="geometry" />
        </mxCell>
      </root>
    </mxGraphModel>
  </diagram>
</mxfile>
